<?xml version="1.0" standalone="no"?>
<!DOCTYPE svg PUBLIC "-//W3C//DTD SVG 20010904//EN"
 "http://www.w3.org/TR/2001/REC-SVG-20010904/DTD/svg10.dtd">
<svg version="1.0" xmlns="http://www.w3.org/2000/svg"
 width="512.000000pt" height="512.000000pt" viewBox="0 0 512.000000 512.000000"
 preserveAspectRatio="xMidYMid meet">

<g transform="translate(0.000000,512.000000) scale(0.100000,-0.100000)"
fill="#000000" stroke="none">
<path d="M2305 4636 c-108 -47 -159 -225 -225 -786 -17 -145 -32 -265 -34
-267 -1 -1 -19 59 -40 135 -72 261 -146 427 -214 479 -37 29 -96 35 -136 14
-88 -48 -147 -257 -200 -716 -96 -813 -147 -1170 -218 -1504 -43 -207 -105
-401 -128 -401 -13 0 -68 134 -105 254 -20 66 -65 235 -100 375 -71 285 -89
340 -136 436 -105 211 -276 247 -443 94 -51 -46 -135 -159 -170 -226 -23 -45
-20 -80 9 -108 48 -48 98 -27 150 63 22 36 65 94 97 128 89 95 131 100 187 24
47 -65 76 -151 151 -451 149 -593 228 -759 360 -759 130 0 212 169 305 630 19
96 35 185 35 198 0 43 16 21 37 -50 53 -181 125 -308 194 -343 36 -19 92 -19
128 0 89 46 161 234 240 634 l37 184 43 -204 c276 -1313 403 -1765 542 -1922
97 -111 212 -91 286 50 17 32 40 87 52 123 17 52 130 535 131 559 0 3 18 -37
38 -90 51 -126 93 -198 145 -246 75 -70 154 -66 222 9 85 94 118 215 343 1263
27 127 52 223 56 215 3 -8 22 -91 42 -185 92 -432 168 -662 236 -710 36 -24
100 -19 132 10 45 41 73 118 140 386 75 296 117 425 176 538 68 131 141 191
233 191 36 0 77 41 77 75 0 16 -12 39 -31 57 -29 29 -33 30 -91 24 -239 -25
-369 -237 -519 -848 -29 -120 -57 -214 -61 -210 -14 14 -89 308 -153 602 -35
162 -73 335 -85 384 l-20 89 55 226 c93 379 171 611 218 649 13 11 19 7 43
-33 39 -68 80 -179 130 -354 47 -165 62 -191 113 -191 36 0 68 24 76 58 10 50
-85 372 -151 510 -60 124 -125 182 -205 182 -134 0 -222 -169 -359 -689 l-12
-44 -32 76 c-65 150 -123 222 -190 237 -156 35 -267 -159 -401 -705 -36 -145
-137 -593 -170 -753 -4 -18 -8 -32 -10 -30 -5 5 -89 387 -200 911 -182 865
-255 1172 -331 1408 -67 210 -128 315 -201 345 -39 17 -50 17 -88 0z m124
-361 c80 -243 148 -527 341 -1440 136 -640 212 -983 255 -1141 l25 -92 -81
-363 c-45 -200 -92 -400 -106 -444 -31 -97 -60 -158 -73 -150 -19 12 -61 95
-100 196 -88 235 -198 682 -380 1539 -61 289 -122 573 -135 633 -24 104 -24
111 -10 210 8 56 32 262 55 457 22 195 50 411 61 479 19 118 54 275 66 295 10
15 40 -51 82 -179z m-652 -350 c35 -90 94 -301 158 -568 l57 -238 -32 -207
c-38 -250 -89 -517 -130 -671 -33 -123 -77 -234 -91 -225 -31 19 -98 213 -169
487 l-50 192 30 235 c16 129 41 336 55 460 38 330 85 599 112 644 7 11 28 -27
60 -109z m1943 -701 c35 -70 85 -212 117 -335 l17 -66 -103 -479 c-203 -948
-265 -1202 -307 -1262 l-16 -23 -25 35 c-51 76 -183 452 -183 522 0 39 164
795 235 1082 93 377 179 612 219 599 6 -2 27 -35 46 -73z"/>
</g>
</svg>
