<?xml version="1.0" standalone="no"?>
<!DOCTYPE svg PUBLIC "-//W3C//DTD SVG 20010904//EN"
 "http://www.w3.org/TR/2001/REC-SVG-20010904/DTD/svg10.dtd">
<svg version="1.0" xmlns="http://www.w3.org/2000/svg"
 width="512.000000pt" height="512.000000pt" viewBox="0 0 512.000000 512.000000"
 preserveAspectRatio="xMidYMid meet">

<g transform="translate(0.000000,512.000000) scale(0.100000,-0.100000)"
fill="#000000" stroke="none">
<path d="M2370 4860 c-41 -10 -96 -28 -122 -39 -78 -33 -1439 -823 -1503 -872
-86 -66 -170 -170 -220 -274 -85 -175 -80 -106 -80 -1115 0 -1009 -5 -940 80
-1115 51 -107 135 -210 225 -278 70 -52 1374 -810 1478 -858 204 -95 484 -92
683 9 41 21 180 99 309 174 129 75 424 245 655 378 231 133 434 252 450 263
118 81 212 190 275 322 79 164 75 101 75 1105 0 1009 5 940 -80 1115 -52 107
-135 209 -227 279 -37 28 -219 138 -405 245 -186 107 -477 276 -648 374 -400
232 -457 261 -564 286 -114 27 -275 27 -381 1z m380 -336 c98 -47 1394 -798
1439 -835 52 -41 117 -135 144 -207 22 -57 22 -64 25 -887 2 -592 0 -847 -8
-889 -20 -102 -86 -215 -161 -276 -45 -36 -1340 -786 -1439 -834 -62 -30 -71
-31 -190 -31 -108 0 -132 3 -173 22 -27 12 -359 201 -739 420 -581 335 -699
407 -747 454 -63 63 -112 153 -130 237 -15 74 -15 1650 0 1724 18 84 67 174
130 237 56 56 129 99 1304 774 93 54 190 104 215 112 31 10 80 14 155 12 100
-2 116 -5 175 -33z"/>
<path d="M2370 3454 c-84 -18 -137 -37 -235 -88 -173 -89 -307 -227 -395 -410
-74 -153 -85 -202 -85 -396 0 -194 11 -243 85 -396 93 -193 231 -331 424 -424
153 -74 202 -85 396 -85 193 0 241 11 395 84 189 90 332 233 425 424 74 154
85 203 85 397 0 194 -11 243 -85 396 -125 259 -357 442 -632 498 -95 20 -288
20 -378 0z m387 -334 c172 -60 313 -207 368 -383 66 -207 8 -442 -146 -596
-154 -154 -389 -212 -597 -146 -249 79 -412 302 -412 565 0 173 60 312 186
431 72 68 133 104 227 135 64 22 86 24 192 20 91 -3 135 -9 182 -26z"/>
</g>
</svg>
